<svg xmlns="http://www.w3.org/2000/svg" width="57.999" height="49" viewBox="0 0 57.999 36">
  <g id="Vector_Smart_Object" data-name="Vector Smart Object" transform="translate(-0.016 -10.453)">
    <path fill="#e84c3d" id="Контур_46" data-name="Контур 46" d="M32.451,12.351A12.941,12.941,0,0,1,45.5,25.15c0,.039-.005.08-.007.119-.005.094-.013.189-.015.285l-.049,1.935,1.979.007a8.532,8.532,0,1,1,.016,17.062H11.61A9.453,9.453,0,0,1,8.484,26.115l1.088-.365.192-1.111a5.746,5.746,0,0,1,5.711-4.732,5.82,5.82,0,0,1,2.6.61l1.763.868.851-1.745a13.143,13.143,0,0,1,11.766-7.291Zm0-1.9A15,15,0,0,0,18.94,18.821a7.794,7.794,0,0,0-3.466-.811,7.688,7.688,0,0,0-7.617,6.313,11.343,11.343,0,0,0,3.75,22.13l35.827,0A10.427,10.427,0,1,0,47.412,25.6c0-.151.024-.3.024-.45A14.842,14.842,0,0,0,32.451,10.455h0Z"/>
  </g>
</svg>
