<svg xmlns="http://www.w3.org/2000/svg" width="48.999" height="49" viewBox="0 0 48.999 49">
  <g id="Vector_Smart_Object" data-name="Vector Smart Object" transform="translate(-4.914 -4.912)">
    <path fill="#e84c3d" id="Контур_40" data-name="Контур 40" d="M32.356,6.871v4.776l1.467.38a17.529,17.529,0,0,1,4.719,1.987l1.314.8,3.419-3.419,4.159,4.158-3.471,3.47.746,1.3a17.524,17.524,0,0,1,1.844,4.645l.36,1.5h5.046v5.882H46.8l-.4,1.436a17.469,17.469,0,0,1-1.912,4.423l-.8,1.316,3.741,3.741-4.159,4.158L39.484,43.63l-1.3.748a17.428,17.428,0,0,1-4.352,1.766l-1.471.38v5.423H26.479V46.525l-1.471-.38a17.441,17.441,0,0,1-4.353-1.766l-1.3-.748-3.795,3.794L11.4,43.266l3.743-3.741-.8-1.316a17.5,17.5,0,0,1-1.912-4.423l-.4-1.436H6.878V26.469h5.045l.36-1.5a17.482,17.482,0,0,1,1.842-4.645l.748-1.3L11.4,15.551l4.159-4.158,3.419,3.419,1.314-.8a17.508,17.508,0,0,1,4.717-1.987l1.471-.38V6.871h5.874ZM29.415,38.232a8.821,8.821,0,1,0-8.821-8.821A8.83,8.83,0,0,0,29.415,38.232Zm4.9-33.32h-9.8V10.13a19.5,19.5,0,0,0-5.243,2.209L15.555,8.623l-6.929,6.93,3.8,3.8a19.429,19.429,0,0,0-2.048,5.163H4.914v9.8H10.54a19.456,19.456,0,0,0,2.125,4.919L8.624,43.27,15.553,50.2l4.12-4.123a19.485,19.485,0,0,0,4.841,1.969v5.864h9.8V48.047a19.485,19.485,0,0,0,4.841-1.969l4.12,4.123,6.931-6.932-4.045-4.04a19.4,19.4,0,0,0,2.127-4.919h5.626v-9.8H48.452a19.388,19.388,0,0,0-2.046-5.163l3.8-3.8-6.929-6.93L39.555,12.34a19.5,19.5,0,0,0-5.243-2.209V4.912h0Zm-4.9,31.359a6.86,6.86,0,1,1,6.861-6.86,6.857,6.857,0,0,1-6.861,6.86Z"/>
  </g>
</svg>
