<?xml version="1.0" standalone="no"?>
<!DOCTYPE svg PUBLIC "-//W3C//DTD SVG 20010904//EN"
 "http://www.w3.org/TR/2001/REC-SVG-20010904/DTD/svg10.dtd">
<svg version="1.0" xmlns="http://www.w3.org/2000/svg"
 width="260.000000pt" height="260.000000pt" viewBox="0 0 260.000000 260.000000"
 preserveAspectRatio="xMidYMid meet">
<metadata>
Created by potrace 1.11, written by Peter Selinger 2001-2013
</metadata>
<g transform="translate(0.000000,260.000000) scale(0.100000,-0.100000)"
fill="#000000" stroke="none">
<path d="M0 1300 l0 -1300 1300 0 1300 0 0 1300 0 1300 -1300 0 -1300 0 0
-1300z m1111 681 c68 -23 132 -55 147 -74 9 -11 4 -31 -23 -94 -103 -245 -172
-624 -182 -992 l-6 -223 -51 6 c-27 3 -75 18 -106 33 l-55 28 1 150 c1 83 7
203 14 269 11 100 10 120 -1 127 -8 5 -90 9 -182 9 l-168 0 -54 -112 c-63
-132 -119 -294 -135 -393 -20 -122 -18 -117 -43 -110 -47 14 -92 41 -111 68
l-20 27 22 78 c12 42 64 161 116 265 l93 187 -64 0 c-35 0 -63 4 -63 9 0 16
50 41 116 59 l66 17 62 95 c135 206 357 447 480 521 33 20 56 41 56 52 0 22
23 22 91 -2z m1111 -6 c92 -19 148 -46 202 -95 142 -131 103 -375 -80 -501
l-45 -31 46 -49 c70 -75 88 -125 83 -223 -3 -58 -11 -94 -27 -126 -148 -290
-589 -449 -862 -310 -45 24 -110 80 -140 121 l-19 27 35 97 c102 283 299 723
378 845 20 30 34 56 32 58 -6 6 -177 -68 -227 -98 l-52 -32 -28 33 c-15 19
-37 58 -48 88 -25 64 -25 64 86 110 202 86 493 123 666 86z"/>
<path d="M896 1728 c-85 -64 -264 -277 -315 -375 l-12 -23 158 7 c87 3 159 6
160 7 0 1 17 73 37 161 20 88 43 186 50 218 11 42 11 57 3 57 -7 0 -43 -23
-81 -52z"/>
<path d="M2120 1855 c-8 -2 -31 -6 -51 -10 -30 -4 -36 -9 -32 -24 3 -10 -7
-37 -20 -58 -14 -22 -59 -107 -100 -189 l-75 -150 136 3 c149 4 209 16 304 64
179 90 214 264 67 337 -34 17 -69 24 -130 27 -46 2 -91 2 -99 0z"/>
<path d="M2180 1299 c-48 -20 -172 -39 -250 -39 -64 0 -82 4 -104 21 -16 12
-31 18 -36 13 -14 -15 -118 -269 -160 -392 -46 -135 -46 -136 47 -148 118 -14
286 20 408 84 209 110 299 327 183 442 -31 32 -47 35 -88 19z"/>
</g>
</svg>
