<svg xmlns="http://www.w3.org/2000/svg" width="10.978" height="10.011" viewBox="0 0 10.978 10.011">
  <g id="Vector_Smart_Object" data-name="Vector Smart Object" transform="translate(-645.011 -3138.989)">
    <g id="Vector_Smart_Object-2" data-name="Vector Smart Object" transform="translate(644.759 3138.287)">
      <path id="Контур_1" data-name="Контур 1" d="M7.853,1.409a2.694,2.694,0,0,0-2.112,1,2.693,2.693,0,0,0-2.112-1A2.634,2.634,0,0,0,.959,4,2.537,2.537,0,0,0,1.7,5.791L5.741,9.726,9.707,5.861A2.525,2.525,0,0,0,10.523,4a2.634,2.634,0,0,0-2.67-2.59h0Z" fill="none" stroke="#000" stroke-miterlimit="10" stroke-width="1.413"/>
    </g>
    <path id="Color_Overlay" data-name="Color Overlay" d="M646.462,3144.078a2.538,2.538,0,0,1-.744-1.793,2.634,2.634,0,0,1,2.67-2.589,2.725,2.725,0,0,0,4.225,0,2.634,2.634,0,0,1,2.669,2.59,2.524,2.524,0,0,1-.816,1.862l-3.965,3.865Z" fill="#e84c3d"/>
  </g>
</svg>
