<svg width="96" height="20" viewBox="0 0 96 20" fill="none" xmlns="http://www.w3.org/2000/svg">
<path fill-rule="evenodd" clip-rule="evenodd" d="M15.036 11.436V0.47992C15.036 0.16019 15.198 0 15.519 0H19.192V11.6158C19.192 17.7341 15.278 19.8733 9.596 19.8733C3.915 19.8733 0 17.7341 0 11.6158V0.47992C0 0.16019 0.16 0 0.482 0H4.156V11.436C4.156 15.0947 5.782 16.6139 9.596 16.6139C13.411 16.6139 15.036 15.0947 15.036 11.436ZM68.835 2.85894C68.735 3.0792 68.594 3.179 68.294 3.179H57.112V8.0773H66.446C66.607 8.0773 66.667 8.157 66.607 8.3171L65.583 10.8364C65.482 11.0564 65.343 11.1558 65.041 11.1558H59.559C57.774 11.1558 57.112 11.6957 57.112 12.8954V16.3542H69.739C69.899 16.3542 69.959 16.4342 69.899 16.5941L68.835 19.2136C68.735 19.4331 68.594 19.5332 68.294 19.5332H54.501C53.437 19.5332 53.036 19.1734 53.036 18.3735V1.35948C53.036 0.41989 53.558 0 54.943 0H69.739C69.899 0 69.959 0.08026 69.899 0.23979L68.835 2.85894ZM38.395 16.3944H31.145V12.8155C31.145 11.6158 31.808 11.0762 33.596 11.0762H38.395C40.703 11.0762 41.346 11.9557 41.346 13.7554C41.346 15.5547 40.703 16.3944 38.395 16.3944ZM31.145 3.1389H37.632C39.801 3.1389 40.403 3.9522 40.403 5.6379C40.403 7.324 39.801 8.1374 37.632 8.1374H31.145V3.1389ZM42.25 9.2368C43.855 8.3971 44.517 6.8177 44.517 4.9584C44.517 0.63977 40.985 0 37.331 0H28.979C27.594 0 27.073 0.41989 27.073 1.35948V18.3735C27.073 19.1734 27.473 19.5332 28.538 19.5332H38.817C42.691 19.5332 45.462 18.0338 45.462 14.1351C45.462 11.796 44.458 9.8165 42.25 9.2368ZM81.054 9.0567H87.879C90.429 9.0567 90.992 8.0972 90.992 6.098C90.992 4.1186 90.429 3.1392 87.879 3.1392H81.054V9.0567ZM91.152 11.6759L95.548 19.1933C95.629 19.313 95.629 19.5332 95.368 19.5332H91.634C91.333 19.5332 91.212 19.4132 91.091 19.2136L87.117 12.0957H83.503C81.716 12.0957 81.054 12.6357 81.054 13.8354V19.5332H77.461C77.139 19.5332 76.979 19.3731 76.979 19.0534V1.35948C76.979 0.41989 77.5 0 78.886 0H87.278C92.156 0 95.106 1.27988 95.106 6.018C95.106 9.6769 93.341 11.1163 91.152 11.6759Z" fill="#A9ABBD"/>
</svg>
