<svg width="71" height="31" viewBox="0 0 71 31" fill="none" xmlns="http://www.w3.org/2000/svg">
<path fill-rule="evenodd" clip-rule="evenodd" d="M4.984 12.1475C4.984 11.3405 5.624 11.0301 6.668 11.0301C8.172 11.0301 10.051 11.5061 11.555 12.3546V7.49129C9.926 6.80842 8.297 6.53938 6.668 6.53938C2.659 6.53938 0 8.7331 0 12.3961C0 18.1075 7.49 17.1971 7.49 19.6598C7.49 20.6115 6.71 20.922 5.596 20.922C3.968 20.922 1.879 20.2183 0.223 19.2665V24.1917C2.046 25.0195 3.898 25.3712 5.596 25.3712C9.703 25.3712 12.529 23.2399 12.529 19.5355C12.502 13.3686 4.984 14.4653 4.984 12.1475ZM18.321 2.40057L13.504 3.47661L13.49 20.0528C13.49 23.1157 15.676 25.3712 18.599 25.3712C20.214 25.3712 21.397 25.0608 22.052 24.6884V20.4873C21.425 20.7565 18.307 21.7083 18.307 18.6455V11.2991H22.052V6.89122H18.307L18.321 2.40057ZM28.177 8.4225L27.871 6.89122H23.611V24.9987H28.539V12.727C29.695 11.1336 31.672 11.4234 32.284 11.6509V6.89122C31.658 6.64284 29.347 6.18754 28.177 8.4225ZM33.481 6.89122H38.437V24.9987H33.481V6.89122ZM33.481 5.31843L38.437 4.20094V0L33.481 1.09684V5.31829V5.31843ZM48.739 6.53938C46.804 6.53938 45.551 7.49129 44.869 8.1536L44.605 6.87056H40.275V31L45.203 29.9033L45.217 24.0468C45.927 24.5848 46.971 25.3505 48.712 25.3505C52.248 25.3505 55.464 22.3706 55.464 15.8106C55.436 9.8091 52.192 6.53938 48.739 6.53938ZM47.556 20.7978C46.387 20.7978 45.691 20.3633 45.217 19.8252L45.203 12.1475C45.718 11.5475 46.428 11.1336 47.556 11.1336C49.338 11.1336 50.591 13.2443 50.591 15.9553C50.591 18.7284 49.366 20.7978 47.556 20.7978ZM71 16.0174C71 10.7197 68.55 6.53938 63.886 6.53938C59.181 6.53938 56.341 10.7198 56.341 15.9761C56.341 22.205 59.696 25.3505 64.513 25.3505C66.851 25.3505 68.633 24.7918 69.97 24.0054V19.8665C68.633 20.5702 67.088 21.0049 65.139 21.0049C63.232 21.0049 61.533 20.3012 61.311 17.8592H70.958C70.958 17.5901 71 16.514 71 16.0174ZM61.255 14.0515C61.255 11.7131 62.619 10.7404 63.858 10.7404C65.069 10.7404 66.35 11.7131 66.35 14.0515H61.255Z" fill="#A9ABBD"/>
</svg>
