<svg width="73" height="27" viewBox="0 0 73 27" fill="none" xmlns="http://www.w3.org/2000/svg">
<path fill-rule="evenodd" clip-rule="evenodd" d="M8.05315 26.989C5.87815 26.8994 4.09815 26.2816 2.70715 25.1344C2.44215 24.9153 1.80815 24.2582 1.59615 23.9811C1.03215 23.2447 0.64715 22.5281 0.39215 21.733C-0.39585 19.2856 0.0101496 16.0739 1.55215 12.5493C2.87115 9.5317 4.90715 6.53881 8.46015 2.39375C8.98215 1.7838 10.5401 0 10.5521 0C10.5541 0 10.4701 0.15268 10.3631 0.33859C9.44015 1.94421 8.64915 3.83547 8.21815 5.47278C7.52615 8.1 7.61015 10.3546 8.46315 12.1028C9.05115 13.3073 10.0591 14.3505 11.1931 14.9271C13.1781 15.9364 16.0841 16.0198 19.6321 15.1714C19.8761 15.1127 31.9831 11.7774 46.5361 7.7594C61.0901 3.74116 72.9992 0.4561 73.0002 0.4588C73.0042 0.46228 39.1901 15.4787 21.6351 23.2691C18.8551 24.5025 18.1131 24.814 16.8062 25.2902C13.4652 26.5077 10.4721 27.0888 8.05315 26.989Z" fill="#A9ABBD"/>
</svg>
