<svg width="124" height="34" viewBox="0 0 124 34" fill="none" xmlns="http://www.w3.org/2000/svg">
<path fill-rule="evenodd" clip-rule="evenodd" d="M63.9332 6.79881C63.9332 8.2042 62.7832 9.33634 61.3552 9.33634C59.9262 9.33634 58.7762 8.2042 58.7762 6.79881C58.7762 5.3934 59.8872 4.26126 61.3552 4.26126C62.8232 4.3003 63.9332 5.43243 63.9332 6.79881ZM53.3012 11.9129C53.3012 12.1472 53.3012 12.5376 53.3012 12.5376C53.3012 12.5376 52.0712 10.9759 49.4522 10.9759C45.1282 10.9759 41.7562 14.2163 41.7562 18.7057C41.7562 23.1562 45.0882 26.4354 49.4522 26.4354C52.1112 26.4354 53.3012 24.8349 53.3012 24.8349V25.4986C53.3012 25.8108 53.5392 26.0451 53.8562 26.0451H57.0702V11.3663C57.0702 11.3663 54.1342 11.3663 53.8562 11.3663C53.5392 11.3663 53.3012 11.6396 53.3012 11.9129ZM53.3012 21.3214C52.7062 22.1802 51.5162 22.9219 50.0872 22.9219C47.5482 22.9219 45.6042 21.3604 45.6042 18.7057C45.6042 16.0511 47.5482 14.4895 50.0872 14.4895C51.4762 14.4895 52.7452 15.2702 53.3012 16.0901V21.3214ZM59.4502 11.3663H63.2592V26.0451H59.4502V11.3663ZM116.343 10.9759C113.724 10.9759 112.494 12.5376 112.494 12.5376V4.3003H108.686V26.0451C108.686 26.0451 111.622 26.0451 111.899 26.0451C112.217 26.0451 112.455 25.7718 112.455 25.4986V24.8349C112.455 24.8349 113.685 26.4354 116.303 26.4354C120.628 26.4354 124 23.1562 124 18.7057C124 14.2553 120.628 10.9759 116.343 10.9759ZM115.708 22.8829C114.24 22.8829 113.09 22.1411 112.494 21.2822V16.0511C113.09 15.2702 114.359 14.4504 115.708 14.4504C118.247 14.4504 120.191 16.0119 120.191 18.6667C120.191 21.3214 118.247 22.8829 115.708 22.8829ZM106.702 17.3393V26.0841H102.893V17.7688C102.893 15.3484 102.1 14.3724 99.9582 14.3724C98.8072 14.3724 97.6172 14.958 96.8632 15.8168V26.0451H93.0542V11.3663H96.0692C96.3872 11.3663 96.6252 11.6396 96.6252 11.9129V12.5376C97.7362 11.4053 99.2042 10.9759 100.672 10.9759C102.338 10.9759 103.727 11.4445 104.837 12.3813C106.186 13.4744 106.702 14.8798 106.702 17.3393ZM83.8102 10.9759C81.1922 10.9759 79.9622 12.5376 79.9622 12.5376V4.3003H76.1532V26.0451C76.1532 26.0451 79.0892 26.0451 79.3672 26.0451C79.6842 26.0451 79.9222 25.7718 79.9222 25.4986V24.8349C79.9222 24.8349 81.1522 26.4354 83.7702 26.4354C88.0952 26.4354 91.4672 23.1562 91.4672 18.7057C91.5072 14.2553 88.1352 10.9759 83.8102 10.9759ZM83.1752 22.8829C81.7072 22.8829 80.5572 22.1411 79.9622 21.2822V16.0511C80.5572 15.2702 81.8272 14.4504 83.1752 14.4504C85.7152 14.4504 87.6592 16.0119 87.6592 18.6667C87.6592 21.3214 85.7152 22.8829 83.1752 22.8829ZM72.8602 10.9759C74.0112 10.9759 74.6062 11.1712 74.6062 11.1712V14.6457C74.6062 14.6457 71.4322 13.5916 69.4482 15.8168V26.0841H65.6392V11.3663C65.6392 11.3663 68.5752 11.3663 68.8532 11.3663C69.1702 11.3663 69.4082 11.6396 69.4082 11.9129V12.5376C70.1232 11.7178 71.6702 10.9759 72.8602 10.9759ZM31.5482 24.1642C31.3752 23.7558 31.2032 23.3133 31.0312 22.9389C30.7552 22.3263 30.4792 21.7477 30.2382 21.2033L30.2032 21.1691C27.8242 16.064 25.2732 10.8909 22.5842 5.78578L22.4812 5.58159C22.2052 5.07108 21.9292 4.52653 21.6532 3.98198C21.3092 3.36936 20.9642 2.72272 20.4122 2.11011C19.3092 0.748749 17.7232 0 16.0342 0C14.3102 0 12.7592 0.748749 11.6212 2.04204C11.1042 2.65466 10.7252 3.3013 10.3802 3.91391C10.1042 4.45846 9.82818 5.003 9.55318 5.51351L9.44918 5.71772C6.79518 10.8228 4.20918 15.996 1.83018 21.1011L1.79618 21.1691C1.55418 21.7137 1.27818 22.2923 1.00318 22.9049C0.830176 23.2793 0.658176 23.6877 0.486176 24.1302C0.037176 25.3894 -0.100824 26.5806 0.072176 27.8058C0.451176 30.3584 2.17518 32.5025 4.55418 33.4555C5.45018 33.8299 6.38118 34 7.34618 34C7.62218 34 7.96718 33.966 8.24218 33.9319C9.38018 33.7958 10.5522 33.4214 11.6902 32.7748C13.1042 31.9919 14.4482 30.8688 15.9652 29.2353C17.4822 30.8688 18.8612 31.9919 20.2402 32.7748C21.3782 33.4214 22.5502 33.7958 23.6872 33.9319C23.9632 33.966 24.3082 34 24.5842 34C25.5492 34 26.5142 33.8299 27.3762 33.4555C29.7902 32.5025 31.4792 30.3244 31.8582 27.8058C32.1342 26.6146 31.9962 25.4234 31.5482 24.1642ZM16.0312 25.5766C14.2432 23.3304 13.0842 21.2162 12.6872 19.4324C12.5212 18.6727 12.4882 18.012 12.5872 17.4174C12.6542 16.8889 12.8522 16.4264 13.1172 16.0301C13.7462 15.1382 14.8062 14.5766 16.0312 14.5766C17.2572 14.5766 18.3502 15.1052 18.9462 16.0301C19.2112 16.4264 19.4092 16.8889 19.4762 17.4174C19.5752 18.012 19.5422 18.7057 19.3762 19.4324C18.9792 21.1831 17.8202 23.2972 16.0312 25.5766ZM29.4722 27.2869C29.2362 29.0162 28.0562 30.5129 26.4052 31.178C25.5962 31.5105 24.7192 31.6103 23.8432 31.5105C23.0002 31.4109 22.1582 31.1447 21.2812 30.6459C20.0682 29.9807 18.8542 28.9498 17.4392 27.4199C19.6632 24.726 21.0122 22.2649 21.5172 20.07C21.7532 19.039 21.7872 18.1078 21.6862 17.2431C21.5512 16.4117 21.2482 15.6468 20.7762 14.9816C19.7312 13.485 17.9782 12.6203 16.0232 12.6203C14.0682 12.6203 12.3162 13.5183 11.2712 14.9816C10.7992 15.6468 10.4952 16.4117 10.3612 17.2431C10.2262 18.1078 10.2592 19.0723 10.5292 20.07C11.0352 22.2649 12.4172 24.7593 14.6082 27.4531C13.2262 28.983 11.9782 30.014 10.7652 30.6791C9.88918 31.178 9.04618 31.4441 8.20318 31.5439C7.29318 31.6435 6.41718 31.5105 5.64218 31.2113C3.99018 30.5461 2.81018 29.0496 2.57418 27.3201C2.47318 26.4887 2.54118 25.6573 2.87818 24.726C2.97918 24.3934 3.14718 24.0609 3.31618 23.6618C3.55218 23.1297 3.82218 22.5643 4.09118 21.9989L4.12518 21.9325C6.45118 16.9771 8.94518 11.9219 11.5402 6.99982L11.6412 6.80027C11.9112 6.30141 12.1812 5.76929 12.4502 5.27043C12.7202 4.73831 13.0232 4.23945 13.3942 3.80711C14.1022 3.00892 15.0462 2.57658 16.0912 2.57658C17.1362 2.57658 18.0792 3.00892 18.7872 3.80711C19.1582 4.23945 19.4612 4.73831 19.7312 5.27043C20.0012 5.76929 20.2702 6.30141 20.5402 6.80027L20.6412 6.99982C23.2032 11.9552 25.6972 17.0103 28.0232 21.9657V21.9989C28.2922 22.5311 28.5282 23.1297 28.7982 23.6618C28.9662 24.0609 29.1352 24.3934 29.2362 24.726C29.5062 25.5907 29.6072 26.4221 29.4722 27.2869Z" fill="#A9ABBD"/>
</svg>
