<svg width="168" height="22" viewBox="0 0 168 22" fill="none" xmlns="http://www.w3.org/2000/svg">
<path fill-rule="evenodd" clip-rule="evenodd" d="M24.282 21.6039V11.9478C24.282 8.3042 21.973 5.8516 18.255 5.8194C16.099 5.6791 14.037 6.7297 12.874 8.5617C11.814 6.7837 9.872 5.7315 7.813 5.8194C6.022 5.7324 4.319 6.6039 3.334 8.1111V6.1799H0V21.6039H3.366V13.0615C3.366 10.3835 4.837 8.9673 7.115 8.9673C9.393 8.9673 10.449 10.4157 10.449 13.0293V21.6039H13.795V13.0615C13.795 10.3835 15.331 8.9673 17.545 8.9673C19.759 8.9673 20.91 10.4157 20.91 13.0293V21.6039H24.282ZM74.08 6.1928H68.64V1.51922H65.27V6.1928H62.16V9.257H65.27V16.2802C65.27 19.8594 66.65 21.9901 70.59 21.9901C72.06 21.9949 73.5 21.5822 74.75 20.7992L73.79 17.9281C72.9 18.4641 71.89 18.7631 70.84 18.7972C69.18 18.7972 68.63 17.7672 68.63 16.2222V9.257H74.08V6.1928ZM102.51 5.8065C100.86 5.758 99.31 6.6251 98.47 8.0661V6.1928H95.17V21.6039H98.51V12.9649C98.51 10.39 99.59 8.9995 101.78 8.9995C102.49 8.9891 103.2 9.1203 103.86 9.3857L104.88 6.225C104.12 5.9508 103.32 5.8093 102.51 5.8065ZM59.53 7.4159C57.645 6.2877 55.475 5.7291 53.281 5.8065C49.403 5.8065 46.882 7.6798 46.882 10.7376C46.882 13.2546 48.738 14.7996 52.167 15.2824L53.735 15.5077C55.558 15.7652 56.429 16.248 56.429 17.117C56.429 18.3079 55.213 18.9903 52.935 18.9903C51.097 19.049 49.294 18.482 47.816 17.381L46.3 19.9881C48.241 21.3537 50.567 22.0555 52.935 21.9901C57.356 21.9901 59.92 19.8915 59.92 16.9625C59.92 14.2524 57.9 12.8362 54.573 12.3534L53.005 12.128C51.566 11.9349 50.408 11.6452 50.408 10.6153C50.408 9.4887 51.495 8.8128 53.325 8.8128C55.002 8.8377 56.645 9.2919 58.1 10.1325L59.53 7.4159ZM148.8 5.8065C147.15 5.758 145.6 6.6251 144.77 8.0661V6.1928H141.47V21.6039H144.8V12.9649C144.8 10.39 145.89 8.9995 148.07 8.9995C148.78 8.9891 149.49 9.1203 150.15 9.3857L151.18 6.225C150.42 5.9508 149.61 5.8093 148.8 5.8065ZM105.88 13.8983C105.88 18.5719 109.11 21.9901 114.05 21.9901C116.05 22.0897 118.01 21.433 119.56 20.149L117.96 17.4389C116.8 18.3218 115.4 18.8072 113.95 18.8229C111.29 18.8229 109.34 16.8531 109.34 13.8919C109.34 10.9307 111.3 8.993 113.95 8.9608C115.4 8.9766 116.8 9.462 117.96 10.3449L119.56 7.6347C118.01 6.3508 116.05 5.6941 114.05 5.7937C109.11 5.7937 105.88 9.2119 105.88 13.8855V13.8983ZM137.09 13.8983V6.1735H133.76V8.0467C132.6 6.5495 130.8 5.7073 128.92 5.7872C124.62 5.7872 121.24 9.1733 121.24 13.879C121.24 18.5848 124.61 21.9708 128.92 21.9708C130.8 22.0507 132.6 21.2085 133.76 19.7113V21.5781H137.09V13.8983ZM124.69 13.8983C124.69 11.1882 126.45 8.9673 129.33 8.9673C132.09 8.9673 133.95 11.0981 133.95 13.8983C133.95 16.6986 132.09 18.8294 129.33 18.8294C126.45 18.8294 124.69 16.602 124.69 13.8983ZM84.47 5.8065C79.99 5.8065 76.84 9.096 76.84 13.8983C76.84 18.7972 80.11 21.9901 84.69 21.9901C86.98 22.0708 89.22 21.3007 90.97 19.8272L89.34 17.3423C88.07 18.3667 86.49 18.9332 84.86 18.9517C82.71 18.9517 80.76 17.9539 80.28 15.1794H91.66C91.69 14.7609 91.72 14.3425 91.72 13.8919C91.72 9.0896 88.74 5.8001 84.45 5.8001L84.47 5.8065ZM84.4 8.8064C86.55 8.8064 87.93 10.1582 88.28 12.5465H80.34C80.69 10.3191 82.04 8.8064 84.41 8.8064H84.4ZM168 13.8983V0H164.67V8.0596C163.51 6.5624 161.71 5.7202 159.83 5.8001C155.54 5.8001 152.15 9.1862 152.15 13.8919C152.15 18.5976 155.52 21.9837 159.83 21.9837C161.71 22.0636 163.51 21.2214 164.67 19.7242V21.591H168V13.8983ZM155.61 13.8983C155.61 11.1882 157.37 8.9673 160.26 8.9673C163.02 8.9673 164.87 11.0981 164.87 13.8983C164.87 16.6986 163.02 18.8294 160.26 18.8294C157.37 18.8294 155.61 16.602 155.61 13.8983ZM43.062 13.8983V6.1735H39.729V8.0467C38.575 6.5624 36.781 5.7284 34.91 5.8065C30.617 5.8065 27.232 9.1926 27.232 13.8983C27.232 18.6041 30.598 21.9901 34.91 21.9901C36.792 22.07 38.594 21.2278 39.748 19.7306V21.5975H43.081L43.062 13.8983ZM30.662 13.8983C30.662 11.1882 32.421 8.9673 35.307 8.9673C38.065 8.9673 39.92 11.0981 39.92 13.8983C39.92 16.6986 38.065 18.8294 35.307 18.8294C32.421 18.8294 30.662 16.6085 30.662 13.8983Z" fill="#A9ABBD"/>
</svg>
