<svg width="36" height="36" viewBox="0 0 36 36" fill="none" xmlns="http://www.w3.org/2000/svg">
<path d="M27.5294 14.8235V10.5882C27.5294 5.29412 23.2941 1.05882 18 1.05882C12.7059 1.05882 8.4706 5.29412 8.4706 10.5882V14.8235C6.6706 14.8235 5.29413 16.2 5.29413 18V31.7647C5.29413 33.4588 6.6706 34.9412 8.4706 34.9412H27.5294C29.3294 34.9412 30.7059 33.4588 30.7059 31.7647V18C30.7059 16.2 29.3294 14.8235 27.5294 14.8235ZM10.5882 10.5882C10.5882 6.45883 13.8706 3.17647 18 3.17647C22.1294 3.17647 25.4118 6.45883 25.4118 10.5882V14.8235H10.5882V10.5882ZM19.0588 26.2588V28.5882C19.0588 29.2235 18.6353 29.6471 18 29.6471C17.3647 29.6471 16.9412 29.2235 16.9412 28.5882V26.2588C15.6706 25.8353 14.8235 24.6706 14.8235 23.2941C14.8235 21.4941 16.2 20.1177 18 20.1177C19.8 20.1177 21.1765 21.4941 21.1765 23.2941C21.1765 24.6706 20.3294 25.8353 19.0588 26.2588Z" fill="#783BFF"/>
</svg>
