<svg width="42" height="42" viewBox="0 0 42 42" fill="none" xmlns="http://www.w3.org/2000/svg">
<path fill-rule="evenodd" clip-rule="evenodd" d="M28.875 21C31.29 21 33.2325 19.04 33.2325 16.625C33.2325 14.21 31.29 12.25 28.875 12.25C26.46 12.25 24.5 14.21 24.5 16.625C24.5 19.04 26.46 21 28.875 21ZM15.75 19.25C18.655 19.25 20.9825 16.905 20.9825 14C20.9825 11.095 18.655 8.75 15.75 8.75C12.845 8.75 10.5 11.095 10.5 14C10.5 16.905 12.845 19.25 15.75 19.25ZM28.875 24.5C25.6725 24.5 19.25 26.11 19.25 29.3125V31.5C19.25 32.4625 20.0375 33.25 21 33.25H36.75C37.7125 33.25 38.5 32.4625 38.5 31.5V29.3125C38.5 26.11 32.0775 24.5 28.875 24.5ZM15.75 22.75C11.6725 22.75 3.5 24.7975 3.5 28.875V31.5C3.5 32.4625 4.2875 33.25 5.25 33.25H15.75V29.3125C15.75 27.825 16.3275 25.2175 19.8975 23.24C18.375 22.925 16.905 22.75 15.75 22.75Z" fill="#465DFF"/>
</svg>
