<svg width="38" height="38" viewBox="0 0 38 38" fill="none" xmlns="http://www.w3.org/2000/svg">
<path d="M27.0469 11.379C26.9404 11.3086 26.814 11.2744 26.6865 11.2815C26.559 11.2887 26.4372 11.3367 26.3391 11.4185C26.2411 11.5004 26.172 11.6116 26.1422 11.7358C26.1124 11.86 26.1235 11.9905 26.1737 12.1079C26.5659 12.9748 26.7422 13.9238 26.6876 14.8738C26.633 15.8237 26.349 16.7463 25.86 17.5625C23.9217 8.2501 19.6546 2.83314 19.4656 2.59653C19.3987 2.51467 19.3115 2.45178 19.2127 2.41414C19.1139 2.3765 19.007 2.36542 18.9026 2.38201C18.7982 2.39975 18.7004 2.44507 18.6193 2.51326C18.5383 2.58146 18.477 2.67006 18.4416 2.76991C18.419 2.83427 16.1141 9.24226 10.9248 13.1823C5.69235 17.1555 5.92896 22.3759 5.94054 22.5621C5.93687 24.2796 6.272 25.981 6.92674 27.5689C7.58148 29.1567 8.54297 30.5999 9.75617 31.8157C10.9694 33.0314 12.4104 33.996 13.9969 34.6541C15.5834 35.3123 17.284 35.651 19.0016 35.651C20.7191 35.651 22.4198 35.3123 24.0063 34.6541C25.5927 33.996 27.0338 33.0314 28.247 31.8157C29.4602 30.5999 30.4217 29.1567 31.0764 27.5689C31.7312 25.981 32.0663 24.2796 32.0626 22.5621V22.5493C31.8938 14.6737 27.2446 11.51 27.0469 11.379ZM19 34.4375C17.5832 34.4359 16.2249 33.8724 15.2231 32.8706C14.2213 31.8688 13.6578 30.5105 13.6563 29.0938C13.6563 24.7101 18.3581 19.4201 18.5582 19.1968C18.6154 19.1374 18.684 19.0902 18.76 19.0579C18.8359 19.0256 18.9175 19.0089 19 19.0089C19.0825 19.0089 19.1641 19.0256 19.2401 19.0579C19.316 19.0902 19.3846 19.1374 19.4418 19.1968C19.6419 19.4198 24.3438 24.7099 24.3438 29.0938C24.3422 30.5105 23.7787 31.8688 22.7769 32.8706C21.7751 33.8724 20.4168 34.4359 19 34.4375Z" fill="#FF6D43"/>
</svg>
