<svg width="42" height="42" viewBox="0 0 42 42" fill="none" xmlns="http://www.w3.org/2000/svg">
<path fill-rule="evenodd" clip-rule="evenodd" d="M29.5 20H28V16C28 14.9 27.1 14 26 14H22V12.5C22 11.12 20.88 10 19.5 10C18.12 10 17 11.12 17 12.5V14H13C11.9 14 11.01 14.9 11.01 16V19.8H12.5C13.99 19.8 15.2 21.01 15.2 22.5C15.2 23.99 13.99 25.2 12.5 25.2H11V29C11 30.1 11.9 31 13 31H16.8V29.5C16.8 28.01 18.01 26.8 19.5 26.8C20.99 26.8 22.2 28.01 22.2 29.5V31H26C27.1 31 28 30.1 28 29V25H29.5C30.88 25 32 23.88 32 22.5C32 21.12 30.88 20 29.5 20Z" fill="#6AC75A"/>
</svg>
