<svg width="34" height="34" viewBox="0 0 34 34" fill="none" xmlns="http://www.w3.org/2000/svg">
<path fill-rule="evenodd" clip-rule="evenodd" d="M28.3333 5.66666H5.66667C4.10834 5.66666 2.8475 6.94166 2.8475 8.49999L2.83334 25.5C2.83334 27.0583 4.10834 28.3333 5.66667 28.3333H28.3333C29.8917 28.3333 31.1667 27.0583 31.1667 25.5V8.49999C31.1667 6.94166 29.8917 5.66666 28.3333 5.66666ZM27.7667 11.6875L17.7508 17.9492C17.2975 18.2325 16.7025 18.2325 16.2492 17.9492L6.23334 11.6875C5.87917 11.4608 5.66667 11.0783 5.66667 10.6675C5.66667 9.71833 6.70084 9.15166 7.50834 9.6475L17 15.5833L26.4917 9.6475C27.2992 9.15166 28.3333 9.71833 28.3333 10.6675C28.3333 11.0783 28.1208 11.4608 27.7667 11.6875Z" fill="#FF6D43"/>
</svg>
