<svg xmlns="http://www.w3.org/2000/svg" width="40" height="51" viewBox="0 0 40 51">
  <path id="Ellipse_1" data-name="Ellipse 1" d="M1090,4134h0a135.7,135.7,0,0,1-10-11.173,73.672,73.672,0,0,1-6.875-10.042c-2.074-3.767-3.125-6.971-3.125-9.523a20.262,20.262,0,0,1,5.858-14.326,19.819,19.819,0,0,1,28.284,0,20.262,20.262,0,0,1,5.858,14.326c0,2.552-1.051,5.757-3.125,9.523a73.7,73.7,0,0,1-6.875,10.042A135.7,135.7,0,0,1,1090,4134Zm0-37.729a6.99,6.99,0,1,0,6.9,6.99A6.953,6.953,0,0,0,1090,4096.271Z" transform="translate(-1070 -4082.999)" fill="#e84c3d"/>
</svg>
